<svg xmlns="http://www.w3.org/2000/svg" viewBox="0 0 760 240" width="760" role="img">
<title>知名游资席位净买入</title>

  <style>
    text { font-family: system-ui, -apple-system, "Segoe UI", "PingFang SC",
           "Microsoft YaHei", sans-serif; fill: #0b0b0b; }
    .sec { fill: #52514e; } .mut { fill: #898781; }
    .grid { stroke: #e1e0d9; stroke-width: 1; }
    .axis { stroke: #c3c2b7; stroke-width: 1; }
    .inflow { fill: #e34948; } .outflow { fill: #2a78d6; }
    .neutral { fill: #f0efec; }
    .line { stroke: #2a78d6; stroke-width: 2; fill: none;
            stroke-linejoin: round; stroke-linecap: round; }
    .dot { fill: #2a78d6; stroke: #fcfcfb; stroke-width: 2; }
    .surface { fill: #fcfcfb; }
    @media (prefers-color-scheme: dark) {
      text { fill: #ffffff; }
      .sec { fill: #c3c2b7; } .mut { fill: #898781; }
      .grid { stroke: #2c2c2a; } .axis { stroke: #383835; }
      .inflow { fill: #e66767; } .outflow { fill: #3987e5; }
      .neutral { fill: #383835; }
      .line { stroke: #3987e5; }
      .dot { fill: #3987e5; stroke: #1a1a19; }
      .surface { fill: #1a1a19; }
    }
  </style>
<rect x="0" y="0" width="760" height="240" class="surface" rx="8"/>
<text x="20" y="30" font-size="16" font-weight="600">知名游资席位净买入</text>
<text x="740" y="30" font-size="12" text-anchor="end" class="mut">亿元</text>
<line x1="76" y1="204.0" x2="736" y2="204.0" class="grid"/>
<text x="68" y="208.0" font-size="11" text-anchor="end" class="mut">-1.4</text>
<line x1="76" y1="153.3" x2="736" y2="153.3" class="grid"/>
<text x="68" y="157.3" font-size="11" text-anchor="end" class="mut">0.4</text>
<line x1="76" y1="102.7" x2="736" y2="102.7" class="grid"/>
<text x="68" y="106.7" font-size="11" text-anchor="end" class="mut">2.2</text>
<line x1="76" y1="52.0" x2="736" y2="52.0" class="grid"/>
<text x="68" y="56.0" font-size="11" text-anchor="end" class="mut">4.0</text>
<polyline points="76.0,89.5 95.4,165.3 114.8,166.0 134.2,147.2 153.6,66.7 173.1,108.4 192.5,145.6 211.9,161.2 231.3,174.0 250.7,172.2 270.1,126.0 289.5,166.2 308.9,189.0 328.4,164.2 347.8,151.2 367.2,172.2 386.6,162.4 406.0,163.0 425.4,161.8 444.8,161.4 464.2,171.7 483.6,158.8 503.1,97.9 522.5,146.4 541.9,165.4 561.3,163.5 580.7,154.0 600.1,171.1 619.5,189.3 638.9,170.8 658.4,121.2 677.8,180.6 697.2,164.0 716.6,173.8 736.0,160.2" class="line"/>
<circle cx="736.0" cy="160.2" r="5" class="dot"/>
<text x="736.0" y="148.2" font-size="12" font-weight="600" text-anchor="end">0.1</text>
<text x="76" y="228" font-size="10" class="mut">2026-07-15</text>
<text x="736" y="228" font-size="10" text-anchor="end" class="mut">2026-09-07</text></svg>
