<svg xmlns="http://www.w3.org/2000/svg" viewBox="0 0 760 240" width="760" role="img">
<title>知名游资席位净买入</title>

  <style>
    text { font-family: system-ui, -apple-system, "Segoe UI", "PingFang SC",
           "Microsoft YaHei", sans-serif; fill: #0b0b0b; }
    .sec { fill: #52514e; } .mut { fill: #898781; }
    .grid { stroke: #e1e0d9; stroke-width: 1; }
    .axis { stroke: #c3c2b7; stroke-width: 1; }
    .inflow { fill: #e34948; } .outflow { fill: #2a78d6; }
    .neutral { fill: #f0efec; }
    .line { stroke: #2a78d6; stroke-width: 2; fill: none;
            stroke-linejoin: round; stroke-linecap: round; }
    .dot { fill: #2a78d6; stroke: #fcfcfb; stroke-width: 2; }
    .surface { fill: #fcfcfb; }
    @media (prefers-color-scheme: dark) {
      text { fill: #ffffff; }
      .sec { fill: #c3c2b7; } .mut { fill: #898781; }
      .grid { stroke: #2c2c2a; } .axis { stroke: #383835; }
      .inflow { fill: #e66767; } .outflow { fill: #3987e5; }
      .neutral { fill: #383835; }
      .line { stroke: #3987e5; }
      .dot { fill: #3987e5; stroke: #1a1a19; }
      .surface { fill: #1a1a19; }
    }
  </style>
<rect x="0" y="0" width="760" height="240" class="surface" rx="8"/>
<text x="20" y="30" font-size="16" font-weight="600">知名游资席位净买入</text>
<text x="740" y="30" font-size="12" text-anchor="end" class="mut">亿元</text>
<line x1="76" y1="204.0" x2="736" y2="204.0" class="grid"/>
<text x="68" y="208.0" font-size="11" text-anchor="end" class="mut">-1.4</text>
<line x1="76" y1="153.3" x2="736" y2="153.3" class="grid"/>
<text x="68" y="157.3" font-size="11" text-anchor="end" class="mut">0.4</text>
<line x1="76" y1="102.7" x2="736" y2="102.7" class="grid"/>
<text x="68" y="106.7" font-size="11" text-anchor="end" class="mut">2.2</text>
<line x1="76" y1="52.0" x2="736" y2="52.0" class="grid"/>
<text x="68" y="56.0" font-size="11" text-anchor="end" class="mut">4.0</text>
<polyline points="76.0,89.5 109.0,165.5 142.0,166.2 175.0,147.4 208.0,66.7 241.0,108.5 274.0,145.8 307.0,161.4 340.0,174.2 373.0,172.4 406.0,126.1 439.0,166.4 472.0,189.3 505.0,164.4 538.0,151.4 571.0,172.4 604.0,162.6 637.0,163.2 670.0,162.0 703.0,161.6 736.0,171.9" class="line"/>
<circle cx="736.0" cy="171.9" r="5" class="dot"/>
<text x="736.0" y="159.9" font-size="12" font-weight="600" text-anchor="end">-0.3</text>
<text x="76" y="228" font-size="10" class="mut">2026-07-15</text>
<text x="736" y="228" font-size="10" text-anchor="end" class="mut">2026-08-12</text></svg>
