<svg xmlns="http://www.w3.org/2000/svg" viewBox="0 0 760 240" width="760" role="img">
<title>知名游资席位净买入</title>

  <style>
    text { font-family: system-ui, -apple-system, "Segoe UI", "PingFang SC",
           "Microsoft YaHei", sans-serif; fill: #0b0b0b; }
    .sec { fill: #52514e; } .mut { fill: #898781; }
    .grid { stroke: #e1e0d9; stroke-width: 1; }
    .axis { stroke: #c3c2b7; stroke-width: 1; }
    .inflow { fill: #e34948; } .outflow { fill: #2a78d6; }
    .neutral { fill: #f0efec; }
    .line { stroke: #2a78d6; stroke-width: 2; fill: none;
            stroke-linejoin: round; stroke-linecap: round; }
    .dot { fill: #2a78d6; stroke: #fcfcfb; stroke-width: 2; }
    .surface { fill: #fcfcfb; }
    @media (prefers-color-scheme: dark) {
      text { fill: #ffffff; }
      .sec { fill: #c3c2b7; } .mut { fill: #898781; }
      .grid { stroke: #2c2c2a; } .axis { stroke: #383835; }
      .inflow { fill: #e66767; } .outflow { fill: #3987e5; }
      .neutral { fill: #383835; }
      .line { stroke: #3987e5; }
      .dot { fill: #3987e5; stroke: #1a1a19; }
      .surface { fill: #1a1a19; }
    }
  </style>
<rect x="0" y="0" width="760" height="240" class="surface" rx="8"/>
<text x="20" y="30" font-size="16" font-weight="600">知名游资席位净买入</text>
<text x="740" y="30" font-size="12" text-anchor="end" class="mut">亿元</text>
<line x1="76" y1="204.0" x2="736" y2="204.0" class="grid"/>
<text x="68" y="208.0" font-size="11" text-anchor="end" class="mut">-4.6</text>
<line x1="76" y1="153.3" x2="736" y2="153.3" class="grid"/>
<text x="68" y="157.3" font-size="11" text-anchor="end" class="mut">-1.6</text>
<line x1="76" y1="102.7" x2="736" y2="102.7" class="grid"/>
<text x="68" y="106.7" font-size="11" text-anchor="end" class="mut">1.4</text>
<line x1="76" y1="52.0" x2="736" y2="52.0" class="grid"/>
<text x="68" y="56.0" font-size="11" text-anchor="end" class="mut">4.3</text>
<polyline points="76.0,80.6 91.3,126.9 106.7,127.3 122.0,115.8 137.4,66.7 152.7,92.1 168.1,114.8 183.4,124.4 198.8,132.1 214.1,131.1 229.5,102.9 244.8,127.4 260.2,141.3 275.5,126.2 290.9,118.3 306.2,131.1 321.6,125.1 336.9,125.5 352.3,124.7 367.6,124.5 383.0,130.8 398.3,122.9 413.7,85.7 429.0,115.3 444.4,126.9 459.7,125.8 475.1,120.0 490.4,130.4 505.8,141.5 521.1,130.2 536.5,100.0 551.8,136.2 567.2,126.1 582.5,132.0 597.9,123.7 613.2,112.6 628.6,128.0 643.9,101.5 659.3,104.3 674.6,148.6 690.0,189.3 705.3,99.8 720.7,156.7 736.0,118.1" class="line"/>
<circle cx="736.0" cy="118.1" r="5" class="dot"/>
<text x="736.0" y="106.1" font-size="12" font-weight="600" text-anchor="end">0.5</text>
<text x="76" y="228" font-size="10" class="mut">2026-07-15</text>
<text x="736" y="228" font-size="10" text-anchor="end" class="mut">2026-09-22</text></svg>
