<svg xmlns="http://www.w3.org/2000/svg" viewBox="0 0 760 240" width="760" role="img">
<title>两融资金参与度(杠杆水位代理)</title>

  <style>
    text { font-family: system-ui, -apple-system, "Segoe UI", "PingFang SC",
           "Microsoft YaHei", sans-serif; fill: #0b0b0b; }
    .sec { fill: #52514e; } .mut { fill: #898781; }
    .grid { stroke: #e1e0d9; stroke-width: 1; }
    .axis { stroke: #c3c2b7; stroke-width: 1; }
    .inflow { fill: #e34948; } .outflow { fill: #2a78d6; }
    .neutral { fill: #f0efec; }
    .line { stroke: #2a78d6; stroke-width: 2; fill: none;
            stroke-linejoin: round; stroke-linecap: round; }
    .dot { fill: #2a78d6; stroke: #fcfcfb; stroke-width: 2; }
    .surface { fill: #fcfcfb; }
    @media (prefers-color-scheme: dark) {
      text { fill: #ffffff; }
      .sec { fill: #c3c2b7; } .mut { fill: #898781; }
      .grid { stroke: #2c2c2a; } .axis { stroke: #383835; }
      .inflow { fill: #e66767; } .outflow { fill: #3987e5; }
      .neutral { fill: #383835; }
      .line { stroke: #3987e5; }
      .dot { fill: #3987e5; stroke: #1a1a19; }
      .surface { fill: #1a1a19; }
    }
  </style>
<rect x="0" y="0" width="760" height="240" class="surface" rx="8"/>
<text x="20" y="30" font-size="16" font-weight="600">两融资金参与度(杠杆水位代理)</text>
<text x="740" y="30" font-size="12" text-anchor="end" class="mut">%</text>
<line x1="76" y1="204.0" x2="736" y2="204.0" class="grid"/>
<text x="68" y="208.0" font-size="11" text-anchor="end" class="mut">6.5</text>
<line x1="76" y1="153.3" x2="736" y2="153.3" class="grid"/>
<text x="68" y="157.3" font-size="11" text-anchor="end" class="mut">7.9</text>
<line x1="76" y1="102.7" x2="736" y2="102.7" class="grid"/>
<text x="68" y="106.7" font-size="11" text-anchor="end" class="mut">9.3</text>
<line x1="76" y1="52.0" x2="736" y2="52.0" class="grid"/>
<text x="68" y="56.0" font-size="11" text-anchor="end" class="mut">10.7</text>
<polyline points="76.0,154.6 114.8,74.8 153.6,73.3 192.5,153.0 231.3,66.7 270.1,78.1 308.9,104.4 347.8,125.7 386.6,100.3 425.4,87.2 464.2,133.3 503.1,129.4 541.9,118.4 580.7,107.7 619.5,82.5 658.4,189.3 697.2,148.0 736.0,174.0" class="line"/>
<circle cx="736.0" cy="174.0" r="5" class="dot"/>
<text x="736.0" y="162.0" font-size="12" font-weight="600" text-anchor="end">7.3</text>
<text x="76" y="228" font-size="10" class="mut">2026-07-17</text>
<text x="736" y="228" font-size="10" text-anchor="end" class="mut">2026-09-16</text></svg>
