<svg xmlns="http://www.w3.org/2000/svg" viewBox="0 0 760 240" width="760" role="img">
<title>全市场融资余额趋势</title>

  <style>
    text { font-family: system-ui, -apple-system, "Segoe UI", "PingFang SC",
           "Microsoft YaHei", sans-serif; fill: #0b0b0b; }
    .sec { fill: #52514e; } .mut { fill: #898781; }
    .grid { stroke: #e1e0d9; stroke-width: 1; }
    .axis { stroke: #c3c2b7; stroke-width: 1; }
    .inflow { fill: #e34948; } .outflow { fill: #2a78d6; }
    .neutral { fill: #f0efec; }
    .line { stroke: #2a78d6; stroke-width: 2; fill: none;
            stroke-linejoin: round; stroke-linecap: round; }
    .dot { fill: #2a78d6; stroke: #fcfcfb; stroke-width: 2; }
    .surface { fill: #fcfcfb; }
    @media (prefers-color-scheme: dark) {
      text { fill: #ffffff; }
      .sec { fill: #c3c2b7; } .mut { fill: #898781; }
      .grid { stroke: #2c2c2a; } .axis { stroke: #383835; }
      .inflow { fill: #e66767; } .outflow { fill: #3987e5; }
      .neutral { fill: #383835; }
      .line { stroke: #3987e5; }
      .dot { fill: #3987e5; stroke: #1a1a19; }
      .surface { fill: #1a1a19; }
    }
  </style>
<rect x="0" y="0" width="760" height="240" class="surface" rx="8"/>
<text x="20" y="30" font-size="16" font-weight="600">全市场融资余额趋势</text>
<text x="740" y="30" font-size="12" text-anchor="end" class="mut">万亿元</text>
<line x1="76" y1="204.0" x2="736" y2="204.0" class="grid"/>
<text x="68" y="208.0" font-size="11" text-anchor="end" class="mut">2.6</text>
<line x1="76" y1="153.3" x2="736" y2="153.3" class="grid"/>
<text x="68" y="157.3" font-size="11" text-anchor="end" class="mut">2.7</text>
<line x1="76" y1="102.7" x2="736" y2="102.7" class="grid"/>
<text x="68" y="106.7" font-size="11" text-anchor="end" class="mut">2.8</text>
<line x1="76" y1="52.0" x2="736" y2="52.0" class="grid"/>
<text x="68" y="56.0" font-size="11" text-anchor="end" class="mut">2.9</text>
<polyline points="76.0,66.7 95.4,66.7 114.8,97.9 134.2,117.6 153.6,145.6 173.1,145.5 192.5,145.2 211.9,149.8 231.3,160.2 250.7,155.5 270.1,169.5 289.5,189.3 308.9,184.1 328.4,180.8 347.8,174.3 367.2,173.8 386.6,169.3 406.0,168.9 425.4,165.2 444.8,163.9 464.2,172.1 483.6,172.9 503.1,174.1 522.5,177.8 541.9,178.1 561.3,178.5 580.7,174.8 600.1,174.2 619.5,176.7 638.9,177.6 658.4,187.2 677.8,181.8 697.2,180.9 716.6,181.4 736.0,183.4" class="line"/>
<circle cx="736.0" cy="183.4" r="5" class="dot"/>
<text x="736.0" y="171.4" font-size="12" font-weight="600" text-anchor="end">2.6</text>
<text x="76" y="228" font-size="10" class="mut">2026-07-15</text>
<text x="736" y="228" font-size="10" text-anchor="end" class="mut">2026-09-11</text></svg>
