<svg xmlns="http://www.w3.org/2000/svg" viewBox="0 0 760 240" width="760" role="img">
<title>全市场融资余额趋势</title>

  <style>
    text { font-family: system-ui, -apple-system, "Segoe UI", "PingFang SC",
           "Microsoft YaHei", sans-serif; fill: #0b0b0b; }
    .sec { fill: #52514e; } .mut { fill: #898781; }
    .grid { stroke: #e1e0d9; stroke-width: 1; }
    .axis { stroke: #c3c2b7; stroke-width: 1; }
    .inflow { fill: #e34948; } .outflow { fill: #2a78d6; }
    .neutral { fill: #f0efec; }
    .line { stroke: #2a78d6; stroke-width: 2; fill: none;
            stroke-linejoin: round; stroke-linecap: round; }
    .dot { fill: #2a78d6; stroke: #fcfcfb; stroke-width: 2; }
    .surface { fill: #fcfcfb; }
    @media (prefers-color-scheme: dark) {
      text { fill: #ffffff; }
      .sec { fill: #c3c2b7; } .mut { fill: #898781; }
      .grid { stroke: #2c2c2a; } .axis { stroke: #383835; }
      .inflow { fill: #e66767; } .outflow { fill: #3987e5; }
      .neutral { fill: #383835; }
      .line { stroke: #3987e5; }
      .dot { fill: #3987e5; stroke: #1a1a19; }
      .surface { fill: #1a1a19; }
    }
  </style>
<rect x="0" y="0" width="760" height="240" class="surface" rx="8"/>
<text x="20" y="30" font-size="16" font-weight="600">全市场融资余额趋势</text>
<text x="740" y="30" font-size="12" text-anchor="end" class="mut">万亿元</text>
<line x1="76" y1="204.0" x2="736" y2="204.0" class="grid"/>
<text x="68" y="208.0" font-size="11" text-anchor="end" class="mut">2.5</text>
<line x1="76" y1="153.3" x2="736" y2="153.3" class="grid"/>
<text x="68" y="157.3" font-size="11" text-anchor="end" class="mut">2.7</text>
<line x1="76" y1="102.7" x2="736" y2="102.7" class="grid"/>
<text x="68" y="106.7" font-size="11" text-anchor="end" class="mut">2.8</text>
<line x1="76" y1="52.0" x2="736" y2="52.0" class="grid"/>
<text x="68" y="56.0" font-size="11" text-anchor="end" class="mut">2.9</text>
<polyline points="76.0,66.7 91.7,66.7 107.4,95.4 123.1,113.5 138.9,139.3 154.6,139.2 170.3,138.9 186.0,143.2 201.7,152.7 217.4,148.4 233.1,161.2 248.9,179.5 264.6,174.7 280.3,171.7 296.0,165.7 311.7,165.2 327.4,161.0 343.1,160.7 358.9,157.3 374.6,156.1 390.3,163.7 406.0,164.4 421.7,165.5 437.4,168.9 453.1,169.2 468.9,169.6 484.6,166.2 500.3,165.6 516.0,167.9 531.7,168.7 547.4,177.5 563.1,172.6 578.9,171.7 594.6,172.2 610.3,174.1 626.0,182.5 641.7,182.2 657.4,178.2 673.1,177.6 688.9,171.6 704.6,171.0 720.3,174.5 736.0,189.3" class="line"/>
<circle cx="736.0" cy="189.3" r="5" class="dot"/>
<text x="736.0" y="177.3" font-size="12" font-weight="600" text-anchor="end">2.6</text>
<text x="76" y="228" font-size="10" class="mut">2026-07-15</text>
<text x="736" y="228" font-size="10" text-anchor="end" class="mut">2026-09-30</text></svg>
