<svg xmlns="http://www.w3.org/2000/svg" viewBox="0 0 760 298" width="760" role="img">
<title>七类资金动向矩阵</title>

  <style>
    text { font-family: system-ui, -apple-system, "Segoe UI", "PingFang SC",
           "Microsoft YaHei", sans-serif; fill: #0b0b0b; }
    .sec { fill: #52514e; } .mut { fill: #898781; }
    .grid { stroke: #e1e0d9; stroke-width: 1; }
    .axis { stroke: #c3c2b7; stroke-width: 1; }
    .inflow { fill: #e34948; } .outflow { fill: #2a78d6; }
    .neutral { fill: #f0efec; }
    .line { stroke: #2a78d6; stroke-width: 2; fill: none;
            stroke-linejoin: round; stroke-linecap: round; }
    .dot { fill: #2a78d6; stroke: #fcfcfb; stroke-width: 2; }
    .surface { fill: #fcfcfb; }
    @media (prefers-color-scheme: dark) {
      text { fill: #ffffff; }
      .sec { fill: #c3c2b7; } .mut { fill: #898781; }
      .grid { stroke: #2c2c2a; } .axis { stroke: #383835; }
      .inflow { fill: #e66767; } .outflow { fill: #3987e5; }
      .neutral { fill: #383835; }
      .line { stroke: #3987e5; }
      .dot { fill: #3987e5; stroke: #1a1a19; }
      .surface { fill: #1a1a19; }
    }
  </style>
<rect x="0" y="0" width="760" height="298" class="surface" rx="8"/>
<text x="20" y="30" font-size="16" font-weight="600">动向矩阵 · 近38个交易日</text>
<text x="740" y="30" font-size="12" text-anchor="end" class="mut">红=流入 蓝=流出 灰=中性/缺数据</text>
<text x="138" y="73.0" font-size="13" text-anchor="end">国家队</text>
<rect x="150.0" y="56" width="13.3" height="26" rx="3" class="neutral" opacity="1.0"/>
<rect x="165.3" y="56" width="13.3" height="26" rx="3" class="neutral" opacity="1.0"/>
<rect x="180.5" y="56" width="13.3" height="26" rx="3" class="neutral" opacity="1.0"/>
<rect x="195.8" y="56" width="13.3" height="26" rx="3" class="neutral" opacity="1.0"/>
<rect x="211.1" y="56" width="13.3" height="26" rx="3" class="neutral" opacity="1.0"/>
<rect x="226.3" y="56" width="13.3" height="26" rx="3" class="neutral" opacity="1.0"/>
<rect x="241.6" y="56" width="13.3" height="26" rx="3" class="neutral" opacity="1.0"/>
<rect x="256.8" y="56" width="13.3" height="26" rx="3" class="neutral" opacity="1.0"/>
<rect x="272.1" y="56" width="13.3" height="26" rx="3" class="neutral" opacity="1.0"/>
<rect x="287.4" y="56" width="13.3" height="26" rx="3" class="neutral" opacity="1.0"/>
<rect x="302.6" y="56" width="13.3" height="26" rx="3" class="neutral" opacity="1.0"/>
<rect x="317.9" y="56" width="13.3" height="26" rx="3" class="neutral" opacity="1.0"/>
<rect x="333.2" y="56" width="13.3" height="26" rx="3" class="neutral" opacity="1.0"/>
<rect x="348.4" y="56" width="13.3" height="26" rx="3" class="neutral" opacity="1.0"/>
<rect x="363.7" y="56" width="13.3" height="26" rx="3" class="neutral" opacity="1.0"/>
<rect x="378.9" y="56" width="13.3" height="26" rx="3" class="neutral" opacity="1.0"/>
<rect x="394.2" y="56" width="13.3" height="26" rx="3" class="neutral" opacity="1.0"/>
<rect x="409.5" y="56" width="13.3" height="26" rx="3" class="neutral" opacity="1.0"/>
<rect x="424.7" y="56" width="13.3" height="26" rx="3" class="neutral" opacity="1.0"/>
<rect x="440.0" y="56" width="13.3" height="26" rx="3" class="neutral" opacity="1.0"/>
<rect x="455.3" y="56" width="13.3" height="26" rx="3" class="neutral" opacity="1.0"/>
<rect x="470.5" y="56" width="13.3" height="26" rx="3" class="neutral" opacity="1.0"/>
<rect x="485.8" y="56" width="13.3" height="26" rx="3" class="neutral" opacity="1.0"/>
<rect x="501.1" y="56" width="13.3" height="26" rx="3" class="neutral" opacity="1.0"/>
<rect x="516.3" y="56" width="13.3" height="26" rx="3" class="neutral" opacity="1.0"/>
<rect x="531.6" y="56" width="13.3" height="26" rx="3" class="neutral" opacity="1.0"/>
<rect x="546.8" y="56" width="13.3" height="26" rx="3" class="neutral" opacity="1.0"/>
<rect x="562.1" y="56" width="13.3" height="26" rx="3" class="neutral" opacity="1.0"/>
<rect x="577.4" y="56" width="13.3" height="26" rx="3" class="neutral" opacity="1.0"/>
<rect x="592.6" y="56" width="13.3" height="26" rx="3" class="neutral" opacity="1.0"/>
<rect x="607.9" y="56" width="13.3" height="26" rx="3" class="neutral" opacity="1.0"/>
<rect x="623.2" y="56" width="13.3" height="26" rx="3" class="neutral" opacity="1.0"/>
<rect x="638.4" y="56" width="13.3" height="26" rx="3" class="neutral" opacity="1.0"/>
<rect x="653.7" y="56" width="13.3" height="26" rx="3" class="neutral" opacity="1.0"/>
<rect x="668.9" y="56" width="13.3" height="26" rx="3" class="neutral" opacity="1.0"/>
<rect x="684.2" y="56" width="13.3" height="26" rx="3" class="neutral" opacity="1.0"/>
<rect x="699.5" y="56" width="13.3" height="26" rx="3" class="neutral" opacity="1.0"/>
<rect x="714.7" y="56" width="13.3" height="26" rx="3" class="neutral" opacity="1.0"/>
<text x="138" y="101.0" font-size="13" text-anchor="end">险资与社保</text>
<rect x="150.0" y="84" width="13.3" height="26" rx="3" class="neutral" opacity="1.0"/>
<rect x="165.3" y="84" width="13.3" height="26" rx="3" class="neutral" opacity="1.0"/>
<rect x="180.5" y="84" width="13.3" height="26" rx="3" class="neutral" opacity="1.0"/>
<rect x="195.8" y="84" width="13.3" height="26" rx="3" class="neutral" opacity="1.0"/>
<rect x="211.1" y="84" width="13.3" height="26" rx="3" class="neutral" opacity="1.0"/>
<rect x="226.3" y="84" width="13.3" height="26" rx="3" class="neutral" opacity="1.0"/>
<rect x="241.6" y="84" width="13.3" height="26" rx="3" class="neutral" opacity="1.0"/>
<rect x="256.8" y="84" width="13.3" height="26" rx="3" class="neutral" opacity="1.0"/>
<rect x="272.1" y="84" width="13.3" height="26" rx="3" class="neutral" opacity="1.0"/>
<rect x="287.4" y="84" width="13.3" height="26" rx="3" class="neutral" opacity="1.0"/>
<rect x="302.6" y="84" width="13.3" height="26" rx="3" class="neutral" opacity="1.0"/>
<rect x="317.9" y="84" width="13.3" height="26" rx="3" class="neutral" opacity="1.0"/>
<rect x="333.2" y="84" width="13.3" height="26" rx="3" class="neutral" opacity="1.0"/>
<rect x="348.4" y="84" width="13.3" height="26" rx="3" class="neutral" opacity="1.0"/>
<rect x="363.7" y="84" width="13.3" height="26" rx="3" class="neutral" opacity="1.0"/>
<rect x="378.9" y="84" width="13.3" height="26" rx="3" class="neutral" opacity="1.0"/>
<rect x="394.2" y="84" width="13.3" height="26" rx="3" class="neutral" opacity="1.0"/>
<rect x="409.5" y="84" width="13.3" height="26" rx="3" class="neutral" opacity="1.0"/>
<rect x="424.7" y="84" width="13.3" height="26" rx="3" class="neutral" opacity="1.0"/>
<rect x="440.0" y="84" width="13.3" height="26" rx="3" class="neutral" opacity="1.0"/>
<rect x="455.3" y="84" width="13.3" height="26" rx="3" class="neutral" opacity="1.0"/>
<rect x="470.5" y="84" width="13.3" height="26" rx="3" class="neutral" opacity="1.0"/>
<rect x="485.8" y="84" width="13.3" height="26" rx="3" class="neutral" opacity="1.0"/>
<rect x="501.1" y="84" width="13.3" height="26" rx="3" class="neutral" opacity="1.0"/>
<rect x="516.3" y="84" width="13.3" height="26" rx="3" class="neutral" opacity="1.0"/>
<rect x="531.6" y="84" width="13.3" height="26" rx="3" class="neutral" opacity="1.0"/>
<rect x="546.8" y="84" width="13.3" height="26" rx="3" class="neutral" opacity="1.0"/>
<rect x="562.1" y="84" width="13.3" height="26" rx="3" class="neutral" opacity="1.0"/>
<rect x="577.4" y="84" width="13.3" height="26" rx="3" class="neutral" opacity="1.0"/>
<rect x="592.6" y="84" width="13.3" height="26" rx="3" class="neutral" opacity="1.0"/>
<rect x="607.9" y="84" width="13.3" height="26" rx="3" class="neutral" opacity="1.0"/>
<rect x="623.2" y="84" width="13.3" height="26" rx="3" class="neutral" opacity="1.0"/>
<rect x="638.4" y="84" width="13.3" height="26" rx="3" class="neutral" opacity="1.0"/>
<rect x="653.7" y="84" width="13.3" height="26" rx="3" class="neutral" opacity="1.0"/>
<rect x="668.9" y="84" width="13.3" height="26" rx="3" class="neutral" opacity="1.0"/>
<rect x="684.2" y="84" width="13.3" height="26" rx="3" class="neutral" opacity="1.0"/>
<rect x="699.5" y="84" width="13.3" height="26" rx="3" class="neutral" opacity="1.0"/>
<rect x="714.7" y="84" width="13.3" height="26" rx="3" class="neutral" opacity="1.0"/>
<text x="138" y="129.0" font-size="13" text-anchor="end">公募基金(附:主观私募)</text>
<rect x="150.0" y="112" width="13.3" height="26" rx="3" class="neutral" opacity="1.0"/>
<rect x="165.3" y="112" width="13.3" height="26" rx="3" class="neutral" opacity="1.0"/>
<rect x="180.5" y="112" width="13.3" height="26" rx="3" class="inflow" opacity="0.55"/>
<rect x="195.8" y="112" width="13.3" height="26" rx="3" class="inflow" opacity="0.55"/>
<rect x="211.1" y="112" width="13.3" height="26" rx="3" class="inflow" opacity="1.0"/>
<rect x="226.3" y="112" width="13.3" height="26" rx="3" class="neutral" opacity="1.0"/>
<rect x="241.6" y="112" width="13.3" height="26" rx="3" class="outflow" opacity="0.55"/>
<rect x="256.8" y="112" width="13.3" height="26" rx="3" class="inflow" opacity="0.55"/>
<rect x="272.1" y="112" width="13.3" height="26" rx="3" class="neutral" opacity="1.0"/>
<rect x="287.4" y="112" width="13.3" height="26" rx="3" class="inflow" opacity="0.55"/>
<rect x="302.6" y="112" width="13.3" height="26" rx="3" class="inflow" opacity="0.55"/>
<rect x="317.9" y="112" width="13.3" height="26" rx="3" class="inflow" opacity="0.55"/>
<rect x="333.2" y="112" width="13.3" height="26" rx="3" class="inflow" opacity="0.55"/>
<rect x="348.4" y="112" width="13.3" height="26" rx="3" class="outflow" opacity="0.55"/>
<rect x="363.7" y="112" width="13.3" height="26" rx="3" class="inflow" opacity="0.55"/>
<rect x="378.9" y="112" width="13.3" height="26" rx="3" class="neutral" opacity="1.0"/>
<rect x="394.2" y="112" width="13.3" height="26" rx="3" class="neutral" opacity="1.0"/>
<rect x="409.5" y="112" width="13.3" height="26" rx="3" class="outflow" opacity="0.55"/>
<rect x="424.7" y="112" width="13.3" height="26" rx="3" class="outflow" opacity="0.55"/>
<rect x="440.0" y="112" width="13.3" height="26" rx="3" class="outflow" opacity="0.55"/>
<rect x="455.3" y="112" width="13.3" height="26" rx="3" class="neutral" opacity="1.0"/>
<rect x="470.5" y="112" width="13.3" height="26" rx="3" class="neutral" opacity="1.0"/>
<rect x="485.8" y="112" width="13.3" height="26" rx="3" class="outflow" opacity="0.55"/>
<rect x="501.1" y="112" width="13.3" height="26" rx="3" class="outflow" opacity="0.55"/>
<rect x="516.3" y="112" width="13.3" height="26" rx="3" class="neutral" opacity="1.0"/>
<rect x="531.6" y="112" width="13.3" height="26" rx="3" class="neutral" opacity="1.0"/>
<rect x="546.8" y="112" width="13.3" height="26" rx="3" class="inflow" opacity="0.55"/>
<rect x="562.1" y="112" width="13.3" height="26" rx="3" class="neutral" opacity="1.0"/>
<rect x="577.4" y="112" width="13.3" height="26" rx="3" class="neutral" opacity="1.0"/>
<rect x="592.6" y="112" width="13.3" height="26" rx="3" class="neutral" opacity="1.0"/>
<rect x="607.9" y="112" width="13.3" height="26" rx="3" class="neutral" opacity="1.0"/>
<rect x="623.2" y="112" width="13.3" height="26" rx="3" class="outflow" opacity="0.55"/>
<rect x="638.4" y="112" width="13.3" height="26" rx="3" class="neutral" opacity="1.0"/>
<rect x="653.7" y="112" width="13.3" height="26" rx="3" class="neutral" opacity="1.0"/>
<rect x="668.9" y="112" width="13.3" height="26" rx="3" class="neutral" opacity="1.0"/>
<rect x="684.2" y="112" width="13.3" height="26" rx="3" class="neutral" opacity="1.0"/>
<rect x="699.5" y="112" width="13.3" height="26" rx="3" class="neutral" opacity="1.0"/>
<rect x="714.7" y="112" width="13.3" height="26" rx="3" class="neutral" opacity="1.0"/>
<text x="138" y="157.0" font-size="13" text-anchor="end">量化资金</text>
<rect x="150.0" y="140" width="13.3" height="26" rx="3" class="neutral" opacity="1.0"/>
<rect x="165.3" y="140" width="13.3" height="26" rx="3" class="neutral" opacity="1.0"/>
<rect x="180.5" y="140" width="13.3" height="26" rx="3" class="neutral" opacity="1.0"/>
<rect x="195.8" y="140" width="13.3" height="26" rx="3" class="neutral" opacity="1.0"/>
<rect x="211.1" y="140" width="13.3" height="26" rx="3" class="neutral" opacity="1.0"/>
<rect x="226.3" y="140" width="13.3" height="26" rx="3" class="neutral" opacity="1.0"/>
<rect x="241.6" y="140" width="13.3" height="26" rx="3" class="neutral" opacity="1.0"/>
<rect x="256.8" y="140" width="13.3" height="26" rx="3" class="neutral" opacity="1.0"/>
<rect x="272.1" y="140" width="13.3" height="26" rx="3" class="neutral" opacity="1.0"/>
<rect x="287.4" y="140" width="13.3" height="26" rx="3" class="neutral" opacity="1.0"/>
<rect x="302.6" y="140" width="13.3" height="26" rx="3" class="neutral" opacity="1.0"/>
<rect x="317.9" y="140" width="13.3" height="26" rx="3" class="neutral" opacity="1.0"/>
<rect x="333.2" y="140" width="13.3" height="26" rx="3" class="neutral" opacity="1.0"/>
<rect x="348.4" y="140" width="13.3" height="26" rx="3" class="neutral" opacity="1.0"/>
<rect x="363.7" y="140" width="13.3" height="26" rx="3" class="neutral" opacity="1.0"/>
<rect x="378.9" y="140" width="13.3" height="26" rx="3" class="neutral" opacity="1.0"/>
<rect x="394.2" y="140" width="13.3" height="26" rx="3" class="neutral" opacity="1.0"/>
<rect x="409.5" y="140" width="13.3" height="26" rx="3" class="neutral" opacity="1.0"/>
<rect x="424.7" y="140" width="13.3" height="26" rx="3" class="inflow" opacity="0.55"/>
<rect x="440.0" y="140" width="13.3" height="26" rx="3" class="neutral" opacity="1.0"/>
<rect x="455.3" y="140" width="13.3" height="26" rx="3" class="neutral" opacity="1.0"/>
<rect x="470.5" y="140" width="13.3" height="26" rx="3" class="inflow" opacity="0.55"/>
<rect x="485.8" y="140" width="13.3" height="26" rx="3" class="neutral" opacity="1.0"/>
<rect x="501.1" y="140" width="13.3" height="26" rx="3" class="neutral" opacity="1.0"/>
<rect x="516.3" y="140" width="13.3" height="26" rx="3" class="neutral" opacity="1.0"/>
<rect x="531.6" y="140" width="13.3" height="26" rx="3" class="inflow" opacity="0.55"/>
<rect x="546.8" y="140" width="13.3" height="26" rx="3" class="inflow" opacity="0.55"/>
<rect x="562.1" y="140" width="13.3" height="26" rx="3" class="neutral" opacity="1.0"/>
<rect x="577.4" y="140" width="13.3" height="26" rx="3" class="inflow" opacity="1.0"/>
<rect x="592.6" y="140" width="13.3" height="26" rx="3" class="inflow" opacity="1.0"/>
<rect x="607.9" y="140" width="13.3" height="26" rx="3" class="neutral" opacity="1.0"/>
<rect x="623.2" y="140" width="13.3" height="26" rx="3" class="inflow" opacity="0.55"/>
<rect x="638.4" y="140" width="13.3" height="26" rx="3" class="inflow" opacity="1.0"/>
<rect x="653.7" y="140" width="13.3" height="26" rx="3" class="inflow" opacity="1.0"/>
<rect x="668.9" y="140" width="13.3" height="26" rx="3" class="neutral" opacity="1.0"/>
<rect x="684.2" y="140" width="13.3" height="26" rx="3" class="inflow" opacity="0.55"/>
<rect x="699.5" y="140" width="13.3" height="26" rx="3" class="inflow" opacity="0.55"/>
<rect x="714.7" y="140" width="13.3" height="26" rx="3" class="inflow" opacity="1.0"/>
<text x="138" y="185.0" font-size="13" text-anchor="end">游资</text>
<rect x="150.0" y="168" width="13.3" height="26" rx="3" class="inflow" opacity="0.55"/>
<rect x="165.3" y="168" width="13.3" height="26" rx="3" class="neutral" opacity="1.0"/>
<rect x="180.5" y="168" width="13.3" height="26" rx="3" class="neutral" opacity="1.0"/>
<rect x="195.8" y="168" width="13.3" height="26" rx="3" class="inflow" opacity="0.55"/>
<rect x="211.1" y="168" width="13.3" height="26" rx="3" class="inflow" opacity="1.0"/>
<rect x="226.3" y="168" width="13.3" height="26" rx="3" class="inflow" opacity="0.55"/>
<rect x="241.6" y="168" width="13.3" height="26" rx="3" class="inflow" opacity="0.55"/>
<rect x="256.8" y="168" width="13.3" height="26" rx="3" class="neutral" opacity="1.0"/>
<rect x="272.1" y="168" width="13.3" height="26" rx="3" class="neutral" opacity="1.0"/>
<rect x="287.4" y="168" width="13.3" height="26" rx="3" class="neutral" opacity="1.0"/>
<rect x="302.6" y="168" width="13.3" height="26" rx="3" class="inflow" opacity="0.55"/>
<rect x="317.9" y="168" width="13.3" height="26" rx="3" class="neutral" opacity="1.0"/>
<rect x="333.2" y="168" width="13.3" height="26" rx="3" class="outflow" opacity="0.55"/>
<rect x="348.4" y="168" width="13.3" height="26" rx="3" class="neutral" opacity="1.0"/>
<rect x="363.7" y="168" width="13.3" height="26" rx="3" class="neutral" opacity="1.0"/>
<rect x="378.9" y="168" width="13.3" height="26" rx="3" class="neutral" opacity="1.0"/>
<rect x="394.2" y="168" width="13.3" height="26" rx="3" class="neutral" opacity="1.0"/>
<rect x="409.5" y="168" width="13.3" height="26" rx="3" class="neutral" opacity="1.0"/>
<rect x="424.7" y="168" width="13.3" height="26" rx="3" class="neutral" opacity="1.0"/>
<rect x="440.0" y="168" width="13.3" height="26" rx="3" class="neutral" opacity="1.0"/>
<rect x="455.3" y="168" width="13.3" height="26" rx="3" class="neutral" opacity="1.0"/>
<rect x="470.5" y="168" width="13.3" height="26" rx="3" class="neutral" opacity="1.0"/>
<rect x="485.8" y="168" width="13.3" height="26" rx="3" class="inflow" opacity="0.55"/>
<rect x="501.1" y="168" width="13.3" height="26" rx="3" class="inflow" opacity="0.55"/>
<rect x="516.3" y="168" width="13.3" height="26" rx="3" class="neutral" opacity="1.0"/>
<rect x="531.6" y="168" width="13.3" height="26" rx="3" class="neutral" opacity="1.0"/>
<rect x="546.8" y="168" width="13.3" height="26" rx="3" class="neutral" opacity="1.0"/>
<rect x="562.1" y="168" width="13.3" height="26" rx="3" class="neutral" opacity="1.0"/>
<rect x="577.4" y="168" width="13.3" height="26" rx="3" class="outflow" opacity="0.55"/>
<rect x="592.6" y="168" width="13.3" height="26" rx="3" class="neutral" opacity="1.0"/>
<rect x="607.9" y="168" width="13.3" height="26" rx="3" class="neutral" opacity="1.0"/>
<rect x="623.2" y="168" width="13.3" height="26" rx="3" class="inflow" opacity="0.55"/>
<rect x="638.4" y="168" width="13.3" height="26" rx="3" class="outflow" opacity="0.55"/>
<rect x="653.7" y="168" width="13.3" height="26" rx="3" class="inflow" opacity="0.55"/>
<rect x="668.9" y="168" width="13.3" height="26" rx="3" class="neutral" opacity="1.0"/>
<rect x="684.2" y="168" width="13.3" height="26" rx="3" class="neutral" opacity="1.0"/>
<rect x="699.5" y="168" width="13.3" height="26" rx="3" class="inflow" opacity="0.55"/>
<rect x="714.7" y="168" width="13.3" height="26" rx="3" class="neutral" opacity="1.0"/>
<text x="138" y="213.0" font-size="13" text-anchor="end">产业资本</text>
<rect x="150.0" y="196" width="13.3" height="26" rx="3" class="neutral" opacity="1.0"/>
<rect x="165.3" y="196" width="13.3" height="26" rx="3" class="neutral" opacity="1.0"/>
<rect x="180.5" y="196" width="13.3" height="26" rx="3" class="inflow" opacity="0.55"/>
<rect x="195.8" y="196" width="13.3" height="26" rx="3" class="inflow" opacity="0.55"/>
<rect x="211.1" y="196" width="13.3" height="26" rx="3" class="inflow" opacity="0.55"/>
<rect x="226.3" y="196" width="13.3" height="26" rx="3" class="inflow" opacity="0.55"/>
<rect x="241.6" y="196" width="13.3" height="26" rx="3" class="neutral" opacity="1.0"/>
<rect x="256.8" y="196" width="13.3" height="26" rx="3" class="neutral" opacity="1.0"/>
<rect x="272.1" y="196" width="13.3" height="26" rx="3" class="outflow" opacity="0.55"/>
<rect x="287.4" y="196" width="13.3" height="26" rx="3" class="neutral" opacity="1.0"/>
<rect x="302.6" y="196" width="13.3" height="26" rx="3" class="neutral" opacity="1.0"/>
<rect x="317.9" y="196" width="13.3" height="26" rx="3" class="inflow" opacity="0.55"/>
<rect x="333.2" y="196" width="13.3" height="26" rx="3" class="neutral" opacity="1.0"/>
<rect x="348.4" y="196" width="13.3" height="26" rx="3" class="outflow" opacity="0.55"/>
<rect x="363.7" y="196" width="13.3" height="26" rx="3" class="neutral" opacity="1.0"/>
<rect x="378.9" y="196" width="13.3" height="26" rx="3" class="inflow" opacity="1.0"/>
<rect x="394.2" y="196" width="13.3" height="26" rx="3" class="neutral" opacity="1.0"/>
<rect x="409.5" y="196" width="13.3" height="26" rx="3" class="outflow" opacity="0.55"/>
<rect x="424.7" y="196" width="13.3" height="26" rx="3" class="outflow" opacity="0.55"/>
<rect x="440.0" y="196" width="13.3" height="26" rx="3" class="outflow" opacity="1.0"/>
<rect x="455.3" y="196" width="13.3" height="26" rx="3" class="outflow" opacity="1.0"/>
<rect x="470.5" y="196" width="13.3" height="26" rx="3" class="outflow" opacity="1.0"/>
<rect x="485.8" y="196" width="13.3" height="26" rx="3" class="outflow" opacity="0.55"/>
<rect x="501.1" y="196" width="13.3" height="26" rx="3" class="outflow" opacity="1.0"/>
<rect x="516.3" y="196" width="13.3" height="26" rx="3" class="outflow" opacity="1.0"/>
<rect x="531.6" y="196" width="13.3" height="26" rx="3" class="neutral" opacity="1.0"/>
<rect x="546.8" y="196" width="13.3" height="26" rx="3" class="outflow" opacity="1.0"/>
<rect x="562.1" y="196" width="13.3" height="26" rx="3" class="inflow" opacity="0.55"/>
<rect x="577.4" y="196" width="13.3" height="26" rx="3" class="outflow" opacity="1.0"/>
<rect x="592.6" y="196" width="13.3" height="26" rx="3" class="outflow" opacity="1.0"/>
<rect x="607.9" y="196" width="13.3" height="26" rx="3" class="outflow" opacity="0.55"/>
<rect x="623.2" y="196" width="13.3" height="26" rx="3" class="neutral" opacity="1.0"/>
<rect x="638.4" y="196" width="13.3" height="26" rx="3" class="outflow" opacity="1.0"/>
<rect x="653.7" y="196" width="13.3" height="26" rx="3" class="outflow" opacity="1.0"/>
<rect x="668.9" y="196" width="13.3" height="26" rx="3" class="outflow" opacity="0.55"/>
<rect x="684.2" y="196" width="13.3" height="26" rx="3" class="outflow" opacity="1.0"/>
<rect x="699.5" y="196" width="13.3" height="26" rx="3" class="outflow" opacity="0.55"/>
<rect x="714.7" y="196" width="13.3" height="26" rx="3" class="outflow" opacity="0.55"/>
<text x="138" y="241.0" font-size="13" text-anchor="end">普通散户</text>
<rect x="150.0" y="224" width="13.3" height="26" rx="3" class="outflow" opacity="0.55"/>
<rect x="165.3" y="224" width="13.3" height="26" rx="3" class="outflow" opacity="0.55"/>
<rect x="180.5" y="224" width="13.3" height="26" rx="3" class="outflow" opacity="0.55"/>
<rect x="195.8" y="224" width="13.3" height="26" rx="3" class="outflow" opacity="0.55"/>
<rect x="211.1" y="224" width="13.3" height="26" rx="3" class="outflow" opacity="0.55"/>
<rect x="226.3" y="224" width="13.3" height="26" rx="3" class="neutral" opacity="1.0"/>
<rect x="241.6" y="224" width="13.3" height="26" rx="3" class="neutral" opacity="1.0"/>
<rect x="256.8" y="224" width="13.3" height="26" rx="3" class="outflow" opacity="0.55"/>
<rect x="272.1" y="224" width="13.3" height="26" rx="3" class="outflow" opacity="0.55"/>
<rect x="287.4" y="224" width="13.3" height="26" rx="3" class="inflow" opacity="0.55"/>
<rect x="302.6" y="224" width="13.3" height="26" rx="3" class="outflow" opacity="0.55"/>
<rect x="317.9" y="224" width="13.3" height="26" rx="3" class="neutral" opacity="1.0"/>
<rect x="333.2" y="224" width="13.3" height="26" rx="3" class="neutral" opacity="1.0"/>
<rect x="348.4" y="224" width="13.3" height="26" rx="3" class="neutral" opacity="1.0"/>
<rect x="363.7" y="224" width="13.3" height="26" rx="3" class="outflow" opacity="0.55"/>
<rect x="378.9" y="224" width="13.3" height="26" rx="3" class="neutral" opacity="1.0"/>
<rect x="394.2" y="224" width="13.3" height="26" rx="3" class="inflow" opacity="0.55"/>
<rect x="409.5" y="224" width="13.3" height="26" rx="3" class="inflow" opacity="0.55"/>
<rect x="424.7" y="224" width="13.3" height="26" rx="3" class="inflow" opacity="0.55"/>
<rect x="440.0" y="224" width="13.3" height="26" rx="3" class="inflow" opacity="0.55"/>
<rect x="455.3" y="224" width="13.3" height="26" rx="3" class="inflow" opacity="0.55"/>
<rect x="470.5" y="224" width="13.3" height="26" rx="3" class="inflow" opacity="0.55"/>
<rect x="485.8" y="224" width="13.3" height="26" rx="3" class="inflow" opacity="0.55"/>
<rect x="501.1" y="224" width="13.3" height="26" rx="3" class="neutral" opacity="1.0"/>
<rect x="516.3" y="224" width="13.3" height="26" rx="3" class="neutral" opacity="1.0"/>
<rect x="531.6" y="224" width="13.3" height="26" rx="3" class="outflow" opacity="0.55"/>
<rect x="546.8" y="224" width="13.3" height="26" rx="3" class="neutral" opacity="1.0"/>
<rect x="562.1" y="224" width="13.3" height="26" rx="3" class="neutral" opacity="1.0"/>
<rect x="577.4" y="224" width="13.3" height="26" rx="3" class="neutral" opacity="1.0"/>
<rect x="592.6" y="224" width="13.3" height="26" rx="3" class="neutral" opacity="1.0"/>
<rect x="607.9" y="224" width="13.3" height="26" rx="3" class="neutral" opacity="1.0"/>
<rect x="623.2" y="224" width="13.3" height="26" rx="3" class="inflow" opacity="0.55"/>
<rect x="638.4" y="224" width="13.3" height="26" rx="3" class="neutral" opacity="1.0"/>
<rect x="653.7" y="224" width="13.3" height="26" rx="3" class="neutral" opacity="1.0"/>
<rect x="668.9" y="224" width="13.3" height="26" rx="3" class="neutral" opacity="1.0"/>
<rect x="684.2" y="224" width="13.3" height="26" rx="3" class="outflow" opacity="0.55"/>
<rect x="699.5" y="224" width="13.3" height="26" rx="3" class="inflow" opacity="0.55"/>
<rect x="714.7" y="224" width="13.3" height="26" rx="3" class="neutral" opacity="1.0"/>
<text x="150.0" y="280" font-size="10" text-anchor="start" class="mut">07-15</text>
<text x="248.2" y="280" font-size="10" text-anchor="middle" class="mut">07-23</text>
<text x="339.8" y="280" font-size="10" text-anchor="middle" class="mut">07-31</text>
<text x="431.4" y="280" font-size="10" text-anchor="middle" class="mut">08-10</text>
<text x="522.9" y="280" font-size="10" text-anchor="middle" class="mut">08-19</text>
<text x="614.5" y="280" font-size="10" text-anchor="middle" class="mut">08-28</text>
<text x="728.0" y="280" font-size="10" text-anchor="end" class="mut">09-09</text></svg>
