<svg xmlns="http://www.w3.org/2000/svg" viewBox="0 0 760 298" width="760" role="img">
<title>七类资金动向矩阵</title>

  <style>
    text { font-family: system-ui, -apple-system, "Segoe UI", "PingFang SC",
           "Microsoft YaHei", sans-serif; fill: #0b0b0b; }
    .sec { fill: #52514e; } .mut { fill: #898781; }
    .grid { stroke: #e1e0d9; stroke-width: 1; }
    .axis { stroke: #c3c2b7; stroke-width: 1; }
    .inflow { fill: #e34948; } .outflow { fill: #2a78d6; }
    .neutral { fill: #f0efec; }
    .line { stroke: #2a78d6; stroke-width: 2; fill: none;
            stroke-linejoin: round; stroke-linecap: round; }
    .dot { fill: #2a78d6; stroke: #fcfcfb; stroke-width: 2; }
    .surface { fill: #fcfcfb; }
    @media (prefers-color-scheme: dark) {
      text { fill: #ffffff; }
      .sec { fill: #c3c2b7; } .mut { fill: #898781; }
      .grid { stroke: #2c2c2a; } .axis { stroke: #383835; }
      .inflow { fill: #e66767; } .outflow { fill: #3987e5; }
      .neutral { fill: #383835; }
      .line { stroke: #3987e5; }
      .dot { fill: #3987e5; stroke: #1a1a19; }
      .surface { fill: #1a1a19; }
    }
  </style>
<rect x="0" y="0" width="760" height="298" class="surface" rx="8"/>
<text x="20" y="30" font-size="16" font-weight="600">动向矩阵 · 近36个交易日</text>
<text x="740" y="30" font-size="12" text-anchor="end" class="mut">红=流入 蓝=流出 灰=中性/缺数据</text>
<text x="138" y="73.0" font-size="13" text-anchor="end">国家队</text>
<rect x="150.0" y="56" width="14.1" height="26" rx="3" class="neutral" opacity="1.0"/>
<rect x="166.1" y="56" width="14.1" height="26" rx="3" class="neutral" opacity="1.0"/>
<rect x="182.2" y="56" width="14.1" height="26" rx="3" class="neutral" opacity="1.0"/>
<rect x="198.3" y="56" width="14.1" height="26" rx="3" class="neutral" opacity="1.0"/>
<rect x="214.4" y="56" width="14.1" height="26" rx="3" class="neutral" opacity="1.0"/>
<rect x="230.6" y="56" width="14.1" height="26" rx="3" class="neutral" opacity="1.0"/>
<rect x="246.7" y="56" width="14.1" height="26" rx="3" class="neutral" opacity="1.0"/>
<rect x="262.8" y="56" width="14.1" height="26" rx="3" class="neutral" opacity="1.0"/>
<rect x="278.9" y="56" width="14.1" height="26" rx="3" class="neutral" opacity="1.0"/>
<rect x="295.0" y="56" width="14.1" height="26" rx="3" class="neutral" opacity="1.0"/>
<rect x="311.1" y="56" width="14.1" height="26" rx="3" class="neutral" opacity="1.0"/>
<rect x="327.2" y="56" width="14.1" height="26" rx="3" class="neutral" opacity="1.0"/>
<rect x="343.3" y="56" width="14.1" height="26" rx="3" class="neutral" opacity="1.0"/>
<rect x="359.4" y="56" width="14.1" height="26" rx="3" class="neutral" opacity="1.0"/>
<rect x="375.6" y="56" width="14.1" height="26" rx="3" class="neutral" opacity="1.0"/>
<rect x="391.7" y="56" width="14.1" height="26" rx="3" class="neutral" opacity="1.0"/>
<rect x="407.8" y="56" width="14.1" height="26" rx="3" class="neutral" opacity="1.0"/>
<rect x="423.9" y="56" width="14.1" height="26" rx="3" class="neutral" opacity="1.0"/>
<rect x="440.0" y="56" width="14.1" height="26" rx="3" class="neutral" opacity="1.0"/>
<rect x="456.1" y="56" width="14.1" height="26" rx="3" class="neutral" opacity="1.0"/>
<rect x="472.2" y="56" width="14.1" height="26" rx="3" class="neutral" opacity="1.0"/>
<rect x="488.3" y="56" width="14.1" height="26" rx="3" class="neutral" opacity="1.0"/>
<rect x="504.4" y="56" width="14.1" height="26" rx="3" class="neutral" opacity="1.0"/>
<rect x="520.6" y="56" width="14.1" height="26" rx="3" class="neutral" opacity="1.0"/>
<rect x="536.7" y="56" width="14.1" height="26" rx="3" class="neutral" opacity="1.0"/>
<rect x="552.8" y="56" width="14.1" height="26" rx="3" class="neutral" opacity="1.0"/>
<rect x="568.9" y="56" width="14.1" height="26" rx="3" class="neutral" opacity="1.0"/>
<rect x="585.0" y="56" width="14.1" height="26" rx="3" class="neutral" opacity="1.0"/>
<rect x="601.1" y="56" width="14.1" height="26" rx="3" class="neutral" opacity="1.0"/>
<rect x="617.2" y="56" width="14.1" height="26" rx="3" class="neutral" opacity="1.0"/>
<rect x="633.3" y="56" width="14.1" height="26" rx="3" class="neutral" opacity="1.0"/>
<rect x="649.4" y="56" width="14.1" height="26" rx="3" class="neutral" opacity="1.0"/>
<rect x="665.6" y="56" width="14.1" height="26" rx="3" class="neutral" opacity="1.0"/>
<rect x="681.7" y="56" width="14.1" height="26" rx="3" class="neutral" opacity="1.0"/>
<rect x="697.8" y="56" width="14.1" height="26" rx="3" class="neutral" opacity="1.0"/>
<rect x="713.9" y="56" width="14.1" height="26" rx="3" class="neutral" opacity="1.0"/>
<text x="138" y="101.0" font-size="13" text-anchor="end">险资与社保</text>
<rect x="150.0" y="84" width="14.1" height="26" rx="3" class="neutral" opacity="1.0"/>
<rect x="166.1" y="84" width="14.1" height="26" rx="3" class="neutral" opacity="1.0"/>
<rect x="182.2" y="84" width="14.1" height="26" rx="3" class="neutral" opacity="1.0"/>
<rect x="198.3" y="84" width="14.1" height="26" rx="3" class="neutral" opacity="1.0"/>
<rect x="214.4" y="84" width="14.1" height="26" rx="3" class="neutral" opacity="1.0"/>
<rect x="230.6" y="84" width="14.1" height="26" rx="3" class="neutral" opacity="1.0"/>
<rect x="246.7" y="84" width="14.1" height="26" rx="3" class="neutral" opacity="1.0"/>
<rect x="262.8" y="84" width="14.1" height="26" rx="3" class="neutral" opacity="1.0"/>
<rect x="278.9" y="84" width="14.1" height="26" rx="3" class="neutral" opacity="1.0"/>
<rect x="295.0" y="84" width="14.1" height="26" rx="3" class="neutral" opacity="1.0"/>
<rect x="311.1" y="84" width="14.1" height="26" rx="3" class="neutral" opacity="1.0"/>
<rect x="327.2" y="84" width="14.1" height="26" rx="3" class="neutral" opacity="1.0"/>
<rect x="343.3" y="84" width="14.1" height="26" rx="3" class="neutral" opacity="1.0"/>
<rect x="359.4" y="84" width="14.1" height="26" rx="3" class="neutral" opacity="1.0"/>
<rect x="375.6" y="84" width="14.1" height="26" rx="3" class="neutral" opacity="1.0"/>
<rect x="391.7" y="84" width="14.1" height="26" rx="3" class="neutral" opacity="1.0"/>
<rect x="407.8" y="84" width="14.1" height="26" rx="3" class="neutral" opacity="1.0"/>
<rect x="423.9" y="84" width="14.1" height="26" rx="3" class="neutral" opacity="1.0"/>
<rect x="440.0" y="84" width="14.1" height="26" rx="3" class="neutral" opacity="1.0"/>
<rect x="456.1" y="84" width="14.1" height="26" rx="3" class="neutral" opacity="1.0"/>
<rect x="472.2" y="84" width="14.1" height="26" rx="3" class="neutral" opacity="1.0"/>
<rect x="488.3" y="84" width="14.1" height="26" rx="3" class="neutral" opacity="1.0"/>
<rect x="504.4" y="84" width="14.1" height="26" rx="3" class="neutral" opacity="1.0"/>
<rect x="520.6" y="84" width="14.1" height="26" rx="3" class="neutral" opacity="1.0"/>
<rect x="536.7" y="84" width="14.1" height="26" rx="3" class="neutral" opacity="1.0"/>
<rect x="552.8" y="84" width="14.1" height="26" rx="3" class="neutral" opacity="1.0"/>
<rect x="568.9" y="84" width="14.1" height="26" rx="3" class="neutral" opacity="1.0"/>
<rect x="585.0" y="84" width="14.1" height="26" rx="3" class="neutral" opacity="1.0"/>
<rect x="601.1" y="84" width="14.1" height="26" rx="3" class="neutral" opacity="1.0"/>
<rect x="617.2" y="84" width="14.1" height="26" rx="3" class="neutral" opacity="1.0"/>
<rect x="633.3" y="84" width="14.1" height="26" rx="3" class="neutral" opacity="1.0"/>
<rect x="649.4" y="84" width="14.1" height="26" rx="3" class="neutral" opacity="1.0"/>
<rect x="665.6" y="84" width="14.1" height="26" rx="3" class="neutral" opacity="1.0"/>
<rect x="681.7" y="84" width="14.1" height="26" rx="3" class="neutral" opacity="1.0"/>
<rect x="697.8" y="84" width="14.1" height="26" rx="3" class="neutral" opacity="1.0"/>
<rect x="713.9" y="84" width="14.1" height="26" rx="3" class="neutral" opacity="1.0"/>
<text x="138" y="129.0" font-size="13" text-anchor="end">公募基金(附:主观私募)</text>
<rect x="150.0" y="112" width="14.1" height="26" rx="3" class="neutral" opacity="1.0"/>
<rect x="166.1" y="112" width="14.1" height="26" rx="3" class="neutral" opacity="1.0"/>
<rect x="182.2" y="112" width="14.1" height="26" rx="3" class="inflow" opacity="0.55"/>
<rect x="198.3" y="112" width="14.1" height="26" rx="3" class="inflow" opacity="0.55"/>
<rect x="214.4" y="112" width="14.1" height="26" rx="3" class="inflow" opacity="1.0"/>
<rect x="230.6" y="112" width="14.1" height="26" rx="3" class="neutral" opacity="1.0"/>
<rect x="246.7" y="112" width="14.1" height="26" rx="3" class="outflow" opacity="0.55"/>
<rect x="262.8" y="112" width="14.1" height="26" rx="3" class="inflow" opacity="0.55"/>
<rect x="278.9" y="112" width="14.1" height="26" rx="3" class="neutral" opacity="1.0"/>
<rect x="295.0" y="112" width="14.1" height="26" rx="3" class="inflow" opacity="0.55"/>
<rect x="311.1" y="112" width="14.1" height="26" rx="3" class="inflow" opacity="0.55"/>
<rect x="327.2" y="112" width="14.1" height="26" rx="3" class="inflow" opacity="0.55"/>
<rect x="343.3" y="112" width="14.1" height="26" rx="3" class="inflow" opacity="0.55"/>
<rect x="359.4" y="112" width="14.1" height="26" rx="3" class="outflow" opacity="0.55"/>
<rect x="375.6" y="112" width="14.1" height="26" rx="3" class="inflow" opacity="0.55"/>
<rect x="391.7" y="112" width="14.1" height="26" rx="3" class="neutral" opacity="1.0"/>
<rect x="407.8" y="112" width="14.1" height="26" rx="3" class="neutral" opacity="1.0"/>
<rect x="423.9" y="112" width="14.1" height="26" rx="3" class="outflow" opacity="0.55"/>
<rect x="440.0" y="112" width="14.1" height="26" rx="3" class="outflow" opacity="0.55"/>
<rect x="456.1" y="112" width="14.1" height="26" rx="3" class="outflow" opacity="0.55"/>
<rect x="472.2" y="112" width="14.1" height="26" rx="3" class="neutral" opacity="1.0"/>
<rect x="488.3" y="112" width="14.1" height="26" rx="3" class="neutral" opacity="1.0"/>
<rect x="504.4" y="112" width="14.1" height="26" rx="3" class="outflow" opacity="0.55"/>
<rect x="520.6" y="112" width="14.1" height="26" rx="3" class="outflow" opacity="0.55"/>
<rect x="536.7" y="112" width="14.1" height="26" rx="3" class="neutral" opacity="1.0"/>
<rect x="552.8" y="112" width="14.1" height="26" rx="3" class="neutral" opacity="1.0"/>
<rect x="568.9" y="112" width="14.1" height="26" rx="3" class="inflow" opacity="0.55"/>
<rect x="585.0" y="112" width="14.1" height="26" rx="3" class="neutral" opacity="1.0"/>
<rect x="601.1" y="112" width="14.1" height="26" rx="3" class="neutral" opacity="1.0"/>
<rect x="617.2" y="112" width="14.1" height="26" rx="3" class="neutral" opacity="1.0"/>
<rect x="633.3" y="112" width="14.1" height="26" rx="3" class="neutral" opacity="1.0"/>
<rect x="649.4" y="112" width="14.1" height="26" rx="3" class="outflow" opacity="0.55"/>
<rect x="665.6" y="112" width="14.1" height="26" rx="3" class="neutral" opacity="1.0"/>
<rect x="681.7" y="112" width="14.1" height="26" rx="3" class="neutral" opacity="1.0"/>
<rect x="697.8" y="112" width="14.1" height="26" rx="3" class="neutral" opacity="1.0"/>
<rect x="713.9" y="112" width="14.1" height="26" rx="3" class="neutral" opacity="1.0"/>
<text x="138" y="157.0" font-size="13" text-anchor="end">量化资金</text>
<rect x="150.0" y="140" width="14.1" height="26" rx="3" class="neutral" opacity="1.0"/>
<rect x="166.1" y="140" width="14.1" height="26" rx="3" class="neutral" opacity="1.0"/>
<rect x="182.2" y="140" width="14.1" height="26" rx="3" class="neutral" opacity="1.0"/>
<rect x="198.3" y="140" width="14.1" height="26" rx="3" class="neutral" opacity="1.0"/>
<rect x="214.4" y="140" width="14.1" height="26" rx="3" class="neutral" opacity="1.0"/>
<rect x="230.6" y="140" width="14.1" height="26" rx="3" class="neutral" opacity="1.0"/>
<rect x="246.7" y="140" width="14.1" height="26" rx="3" class="neutral" opacity="1.0"/>
<rect x="262.8" y="140" width="14.1" height="26" rx="3" class="neutral" opacity="1.0"/>
<rect x="278.9" y="140" width="14.1" height="26" rx="3" class="neutral" opacity="1.0"/>
<rect x="295.0" y="140" width="14.1" height="26" rx="3" class="neutral" opacity="1.0"/>
<rect x="311.1" y="140" width="14.1" height="26" rx="3" class="neutral" opacity="1.0"/>
<rect x="327.2" y="140" width="14.1" height="26" rx="3" class="neutral" opacity="1.0"/>
<rect x="343.3" y="140" width="14.1" height="26" rx="3" class="neutral" opacity="1.0"/>
<rect x="359.4" y="140" width="14.1" height="26" rx="3" class="neutral" opacity="1.0"/>
<rect x="375.6" y="140" width="14.1" height="26" rx="3" class="neutral" opacity="1.0"/>
<rect x="391.7" y="140" width="14.1" height="26" rx="3" class="neutral" opacity="1.0"/>
<rect x="407.8" y="140" width="14.1" height="26" rx="3" class="neutral" opacity="1.0"/>
<rect x="423.9" y="140" width="14.1" height="26" rx="3" class="neutral" opacity="1.0"/>
<rect x="440.0" y="140" width="14.1" height="26" rx="3" class="inflow" opacity="0.55"/>
<rect x="456.1" y="140" width="14.1" height="26" rx="3" class="neutral" opacity="1.0"/>
<rect x="472.2" y="140" width="14.1" height="26" rx="3" class="neutral" opacity="1.0"/>
<rect x="488.3" y="140" width="14.1" height="26" rx="3" class="inflow" opacity="0.55"/>
<rect x="504.4" y="140" width="14.1" height="26" rx="3" class="neutral" opacity="1.0"/>
<rect x="520.6" y="140" width="14.1" height="26" rx="3" class="neutral" opacity="1.0"/>
<rect x="536.7" y="140" width="14.1" height="26" rx="3" class="neutral" opacity="1.0"/>
<rect x="552.8" y="140" width="14.1" height="26" rx="3" class="inflow" opacity="0.55"/>
<rect x="568.9" y="140" width="14.1" height="26" rx="3" class="inflow" opacity="0.55"/>
<rect x="585.0" y="140" width="14.1" height="26" rx="3" class="neutral" opacity="1.0"/>
<rect x="601.1" y="140" width="14.1" height="26" rx="3" class="inflow" opacity="1.0"/>
<rect x="617.2" y="140" width="14.1" height="26" rx="3" class="inflow" opacity="1.0"/>
<rect x="633.3" y="140" width="14.1" height="26" rx="3" class="neutral" opacity="1.0"/>
<rect x="649.4" y="140" width="14.1" height="26" rx="3" class="inflow" opacity="0.55"/>
<rect x="665.6" y="140" width="14.1" height="26" rx="3" class="inflow" opacity="1.0"/>
<rect x="681.7" y="140" width="14.1" height="26" rx="3" class="inflow" opacity="1.0"/>
<rect x="697.8" y="140" width="14.1" height="26" rx="3" class="neutral" opacity="1.0"/>
<rect x="713.9" y="140" width="14.1" height="26" rx="3" class="inflow" opacity="0.55"/>
<text x="138" y="185.0" font-size="13" text-anchor="end">游资</text>
<rect x="150.0" y="168" width="14.1" height="26" rx="3" class="inflow" opacity="0.55"/>
<rect x="166.1" y="168" width="14.1" height="26" rx="3" class="neutral" opacity="1.0"/>
<rect x="182.2" y="168" width="14.1" height="26" rx="3" class="neutral" opacity="1.0"/>
<rect x="198.3" y="168" width="14.1" height="26" rx="3" class="inflow" opacity="0.55"/>
<rect x="214.4" y="168" width="14.1" height="26" rx="3" class="inflow" opacity="1.0"/>
<rect x="230.6" y="168" width="14.1" height="26" rx="3" class="inflow" opacity="0.55"/>
<rect x="246.7" y="168" width="14.1" height="26" rx="3" class="inflow" opacity="0.55"/>
<rect x="262.8" y="168" width="14.1" height="26" rx="3" class="neutral" opacity="1.0"/>
<rect x="278.9" y="168" width="14.1" height="26" rx="3" class="neutral" opacity="1.0"/>
<rect x="295.0" y="168" width="14.1" height="26" rx="3" class="neutral" opacity="1.0"/>
<rect x="311.1" y="168" width="14.1" height="26" rx="3" class="inflow" opacity="0.55"/>
<rect x="327.2" y="168" width="14.1" height="26" rx="3" class="neutral" opacity="1.0"/>
<rect x="343.3" y="168" width="14.1" height="26" rx="3" class="outflow" opacity="0.55"/>
<rect x="359.4" y="168" width="14.1" height="26" rx="3" class="neutral" opacity="1.0"/>
<rect x="375.6" y="168" width="14.1" height="26" rx="3" class="neutral" opacity="1.0"/>
<rect x="391.7" y="168" width="14.1" height="26" rx="3" class="neutral" opacity="1.0"/>
<rect x="407.8" y="168" width="14.1" height="26" rx="3" class="neutral" opacity="1.0"/>
<rect x="423.9" y="168" width="14.1" height="26" rx="3" class="neutral" opacity="1.0"/>
<rect x="440.0" y="168" width="14.1" height="26" rx="3" class="neutral" opacity="1.0"/>
<rect x="456.1" y="168" width="14.1" height="26" rx="3" class="neutral" opacity="1.0"/>
<rect x="472.2" y="168" width="14.1" height="26" rx="3" class="neutral" opacity="1.0"/>
<rect x="488.3" y="168" width="14.1" height="26" rx="3" class="neutral" opacity="1.0"/>
<rect x="504.4" y="168" width="14.1" height="26" rx="3" class="inflow" opacity="0.55"/>
<rect x="520.6" y="168" width="14.1" height="26" rx="3" class="inflow" opacity="0.55"/>
<rect x="536.7" y="168" width="14.1" height="26" rx="3" class="neutral" opacity="1.0"/>
<rect x="552.8" y="168" width="14.1" height="26" rx="3" class="neutral" opacity="1.0"/>
<rect x="568.9" y="168" width="14.1" height="26" rx="3" class="neutral" opacity="1.0"/>
<rect x="585.0" y="168" width="14.1" height="26" rx="3" class="neutral" opacity="1.0"/>
<rect x="601.1" y="168" width="14.1" height="26" rx="3" class="outflow" opacity="0.55"/>
<rect x="617.2" y="168" width="14.1" height="26" rx="3" class="neutral" opacity="1.0"/>
<rect x="633.3" y="168" width="14.1" height="26" rx="3" class="neutral" opacity="1.0"/>
<rect x="649.4" y="168" width="14.1" height="26" rx="3" class="inflow" opacity="0.55"/>
<rect x="665.6" y="168" width="14.1" height="26" rx="3" class="outflow" opacity="0.55"/>
<rect x="681.7" y="168" width="14.1" height="26" rx="3" class="inflow" opacity="0.55"/>
<rect x="697.8" y="168" width="14.1" height="26" rx="3" class="neutral" opacity="1.0"/>
<rect x="713.9" y="168" width="14.1" height="26" rx="3" class="neutral" opacity="1.0"/>
<text x="138" y="213.0" font-size="13" text-anchor="end">产业资本</text>
<rect x="150.0" y="196" width="14.1" height="26" rx="3" class="neutral" opacity="1.0"/>
<rect x="166.1" y="196" width="14.1" height="26" rx="3" class="neutral" opacity="1.0"/>
<rect x="182.2" y="196" width="14.1" height="26" rx="3" class="inflow" opacity="0.55"/>
<rect x="198.3" y="196" width="14.1" height="26" rx="3" class="inflow" opacity="0.55"/>
<rect x="214.4" y="196" width="14.1" height="26" rx="3" class="inflow" opacity="0.55"/>
<rect x="230.6" y="196" width="14.1" height="26" rx="3" class="inflow" opacity="0.55"/>
<rect x="246.7" y="196" width="14.1" height="26" rx="3" class="neutral" opacity="1.0"/>
<rect x="262.8" y="196" width="14.1" height="26" rx="3" class="neutral" opacity="1.0"/>
<rect x="278.9" y="196" width="14.1" height="26" rx="3" class="outflow" opacity="0.55"/>
<rect x="295.0" y="196" width="14.1" height="26" rx="3" class="neutral" opacity="1.0"/>
<rect x="311.1" y="196" width="14.1" height="26" rx="3" class="neutral" opacity="1.0"/>
<rect x="327.2" y="196" width="14.1" height="26" rx="3" class="inflow" opacity="0.55"/>
<rect x="343.3" y="196" width="14.1" height="26" rx="3" class="neutral" opacity="1.0"/>
<rect x="359.4" y="196" width="14.1" height="26" rx="3" class="outflow" opacity="0.55"/>
<rect x="375.6" y="196" width="14.1" height="26" rx="3" class="neutral" opacity="1.0"/>
<rect x="391.7" y="196" width="14.1" height="26" rx="3" class="inflow" opacity="1.0"/>
<rect x="407.8" y="196" width="14.1" height="26" rx="3" class="neutral" opacity="1.0"/>
<rect x="423.9" y="196" width="14.1" height="26" rx="3" class="outflow" opacity="0.55"/>
<rect x="440.0" y="196" width="14.1" height="26" rx="3" class="outflow" opacity="0.55"/>
<rect x="456.1" y="196" width="14.1" height="26" rx="3" class="outflow" opacity="1.0"/>
<rect x="472.2" y="196" width="14.1" height="26" rx="3" class="outflow" opacity="1.0"/>
<rect x="488.3" y="196" width="14.1" height="26" rx="3" class="outflow" opacity="1.0"/>
<rect x="504.4" y="196" width="14.1" height="26" rx="3" class="outflow" opacity="0.55"/>
<rect x="520.6" y="196" width="14.1" height="26" rx="3" class="outflow" opacity="1.0"/>
<rect x="536.7" y="196" width="14.1" height="26" rx="3" class="outflow" opacity="1.0"/>
<rect x="552.8" y="196" width="14.1" height="26" rx="3" class="neutral" opacity="1.0"/>
<rect x="568.9" y="196" width="14.1" height="26" rx="3" class="outflow" opacity="1.0"/>
<rect x="585.0" y="196" width="14.1" height="26" rx="3" class="inflow" opacity="0.55"/>
<rect x="601.1" y="196" width="14.1" height="26" rx="3" class="outflow" opacity="1.0"/>
<rect x="617.2" y="196" width="14.1" height="26" rx="3" class="outflow" opacity="1.0"/>
<rect x="633.3" y="196" width="14.1" height="26" rx="3" class="outflow" opacity="0.55"/>
<rect x="649.4" y="196" width="14.1" height="26" rx="3" class="neutral" opacity="1.0"/>
<rect x="665.6" y="196" width="14.1" height="26" rx="3" class="outflow" opacity="1.0"/>
<rect x="681.7" y="196" width="14.1" height="26" rx="3" class="outflow" opacity="1.0"/>
<rect x="697.8" y="196" width="14.1" height="26" rx="3" class="outflow" opacity="0.55"/>
<rect x="713.9" y="196" width="14.1" height="26" rx="3" class="outflow" opacity="1.0"/>
<text x="138" y="241.0" font-size="13" text-anchor="end">普通散户</text>
<rect x="150.0" y="224" width="14.1" height="26" rx="3" class="outflow" opacity="0.55"/>
<rect x="166.1" y="224" width="14.1" height="26" rx="3" class="outflow" opacity="0.55"/>
<rect x="182.2" y="224" width="14.1" height="26" rx="3" class="outflow" opacity="0.55"/>
<rect x="198.3" y="224" width="14.1" height="26" rx="3" class="outflow" opacity="0.55"/>
<rect x="214.4" y="224" width="14.1" height="26" rx="3" class="outflow" opacity="0.55"/>
<rect x="230.6" y="224" width="14.1" height="26" rx="3" class="neutral" opacity="1.0"/>
<rect x="246.7" y="224" width="14.1" height="26" rx="3" class="neutral" opacity="1.0"/>
<rect x="262.8" y="224" width="14.1" height="26" rx="3" class="outflow" opacity="0.55"/>
<rect x="278.9" y="224" width="14.1" height="26" rx="3" class="outflow" opacity="0.55"/>
<rect x="295.0" y="224" width="14.1" height="26" rx="3" class="inflow" opacity="0.55"/>
<rect x="311.1" y="224" width="14.1" height="26" rx="3" class="outflow" opacity="0.55"/>
<rect x="327.2" y="224" width="14.1" height="26" rx="3" class="neutral" opacity="1.0"/>
<rect x="343.3" y="224" width="14.1" height="26" rx="3" class="neutral" opacity="1.0"/>
<rect x="359.4" y="224" width="14.1" height="26" rx="3" class="neutral" opacity="1.0"/>
<rect x="375.6" y="224" width="14.1" height="26" rx="3" class="outflow" opacity="0.55"/>
<rect x="391.7" y="224" width="14.1" height="26" rx="3" class="neutral" opacity="1.0"/>
<rect x="407.8" y="224" width="14.1" height="26" rx="3" class="inflow" opacity="0.55"/>
<rect x="423.9" y="224" width="14.1" height="26" rx="3" class="inflow" opacity="0.55"/>
<rect x="440.0" y="224" width="14.1" height="26" rx="3" class="inflow" opacity="0.55"/>
<rect x="456.1" y="224" width="14.1" height="26" rx="3" class="inflow" opacity="0.55"/>
<rect x="472.2" y="224" width="14.1" height="26" rx="3" class="inflow" opacity="0.55"/>
<rect x="488.3" y="224" width="14.1" height="26" rx="3" class="inflow" opacity="0.55"/>
<rect x="504.4" y="224" width="14.1" height="26" rx="3" class="inflow" opacity="0.55"/>
<rect x="520.6" y="224" width="14.1" height="26" rx="3" class="neutral" opacity="1.0"/>
<rect x="536.7" y="224" width="14.1" height="26" rx="3" class="neutral" opacity="1.0"/>
<rect x="552.8" y="224" width="14.1" height="26" rx="3" class="outflow" opacity="0.55"/>
<rect x="568.9" y="224" width="14.1" height="26" rx="3" class="neutral" opacity="1.0"/>
<rect x="585.0" y="224" width="14.1" height="26" rx="3" class="neutral" opacity="1.0"/>
<rect x="601.1" y="224" width="14.1" height="26" rx="3" class="neutral" opacity="1.0"/>
<rect x="617.2" y="224" width="14.1" height="26" rx="3" class="neutral" opacity="1.0"/>
<rect x="633.3" y="224" width="14.1" height="26" rx="3" class="neutral" opacity="1.0"/>
<rect x="649.4" y="224" width="14.1" height="26" rx="3" class="inflow" opacity="0.55"/>
<rect x="665.6" y="224" width="14.1" height="26" rx="3" class="neutral" opacity="1.0"/>
<rect x="681.7" y="224" width="14.1" height="26" rx="3" class="neutral" opacity="1.0"/>
<rect x="697.8" y="224" width="14.1" height="26" rx="3" class="neutral" opacity="1.0"/>
<rect x="713.9" y="224" width="14.1" height="26" rx="3" class="outflow" opacity="0.55"/>
<text x="150.0" y="280" font-size="10" text-anchor="start" class="mut">07-15</text>
<text x="253.7" y="280" font-size="10" text-anchor="middle" class="mut">07-23</text>
<text x="350.4" y="280" font-size="10" text-anchor="middle" class="mut">07-31</text>
<text x="447.1" y="280" font-size="10" text-anchor="middle" class="mut">08-10</text>
<text x="543.7" y="280" font-size="10" text-anchor="middle" class="mut">08-19</text>
<text x="640.4" y="280" font-size="10" text-anchor="middle" class="mut">08-28</text>
<text x="728.0" y="280" font-size="10" text-anchor="end" class="mut">09-07</text></svg>
