<svg xmlns="http://www.w3.org/2000/svg" viewBox="0 0 760 240" width="760" role="img">
<title>小微盘成交占比(量化活跃度代理)</title>

  <style>
    text { font-family: system-ui, -apple-system, "Segoe UI", "PingFang SC",
           "Microsoft YaHei", sans-serif; fill: #0b0b0b; }
    .sec { fill: #52514e; } .mut { fill: #898781; }
    .grid { stroke: #e1e0d9; stroke-width: 1; }
    .axis { stroke: #c3c2b7; stroke-width: 1; }
    .inflow { fill: #e34948; } .outflow { fill: #2a78d6; }
    .neutral { fill: #f0efec; }
    .line { stroke: #2a78d6; stroke-width: 2; fill: none;
            stroke-linejoin: round; stroke-linecap: round; }
    .dot { fill: #2a78d6; stroke: #fcfcfb; stroke-width: 2; }
    .surface { fill: #fcfcfb; }
    @media (prefers-color-scheme: dark) {
      text { fill: #ffffff; }
      .sec { fill: #c3c2b7; } .mut { fill: #898781; }
      .grid { stroke: #2c2c2a; } .axis { stroke: #383835; }
      .inflow { fill: #e66767; } .outflow { fill: #3987e5; }
      .neutral { fill: #383835; }
      .line { stroke: #3987e5; }
      .dot { fill: #3987e5; stroke: #1a1a19; }
      .surface { fill: #1a1a19; }
    }
  </style>
<rect x="0" y="0" width="760" height="240" class="surface" rx="8"/>
<text x="20" y="30" font-size="16" font-weight="600">小微盘成交占比(量化活跃度代理)</text>
<text x="740" y="30" font-size="12" text-anchor="end" class="mut">%</text>
<line x1="76" y1="204.0" x2="736" y2="204.0" class="grid"/>
<text x="68" y="208.0" font-size="11" text-anchor="end" class="mut">12.7</text>
<line x1="76" y1="153.3" x2="736" y2="153.3" class="grid"/>
<text x="68" y="157.3" font-size="11" text-anchor="end" class="mut">16.5</text>
<line x1="76" y1="102.7" x2="736" y2="102.7" class="grid"/>
<text x="68" y="106.7" font-size="11" text-anchor="end" class="mut">20.4</text>
<line x1="76" y1="52.0" x2="736" y2="52.0" class="grid"/>
<text x="68" y="56.0" font-size="11" text-anchor="end" class="mut">24.2</text>
<polyline points="76.0,168.6 102.4,163.8 128.8,166.0 155.2,166.9 181.6,172.4 208.0,189.3 234.4,168.1 260.8,164.2 287.2,171.0 313.6,165.3 340.0,174.6 366.4,148.4 392.8,148.8 419.2,139.9 445.6,138.9 472.0,129.1 498.4,124.3 524.8,121.4 551.2,98.2 577.6,100.3 604.0,98.2 630.4,79.0 656.8,66.7 683.2,103.9 709.6,85.1 736.0,68.3" class="line"/>
<circle cx="736.0" cy="68.3" r="5" class="dot"/>
<text x="736.0" y="56.3" font-size="12" font-weight="600" text-anchor="end">23.0</text>
<text x="76" y="228" font-size="10" class="mut">2026-07-15</text>
<text x="736" y="228" font-size="10" text-anchor="end" class="mut">2026-09-09</text></svg>
