<svg xmlns="http://www.w3.org/2000/svg" viewBox="0 0 760 398" width="760" role="img">
<title>七类资金今日动向 2026-07-17</title>

  <style>
    text { font-family: system-ui, -apple-system, "Segoe UI", "PingFang SC",
           "Microsoft YaHei", sans-serif; fill: #0b0b0b; }
    .sec { fill: #52514e; } .mut { fill: #898781; }
    .grid { stroke: #e1e0d9; stroke-width: 1; }
    .axis { stroke: #c3c2b7; stroke-width: 1; }
    .inflow { fill: #e34948; } .outflow { fill: #2a78d6; }
    .neutral { fill: #f0efec; }
    .line { stroke: #2a78d6; stroke-width: 2; fill: none;
            stroke-linejoin: round; stroke-linecap: round; }
    .dot { fill: #2a78d6; stroke: #fcfcfb; stroke-width: 2; }
    .surface { fill: #fcfcfb; }
    @media (prefers-color-scheme: dark) {
      text { fill: #ffffff; }
      .sec { fill: #c3c2b7; } .mut { fill: #898781; }
      .grid { stroke: #2c2c2a; } .axis { stroke: #383835; }
      .inflow { fill: #e66767; } .outflow { fill: #3987e5; }
      .neutral { fill: #383835; }
      .line { stroke: #3987e5; }
      .dot { fill: #3987e5; stroke: #1a1a19; }
      .surface { fill: #1a1a19; }
    }
  </style>
<rect x="0" y="0" width="760" height="398" class="surface" rx="8"/>
<text x="20" y="30" font-size="16" font-weight="600">七类资金今日动向 · 2026-07-17</text>
<text x="740" y="30" font-size="12" text-anchor="end" class="mut">红=流入 蓝=流出 · 深浅=强弱</text>
<line x1="172.3" y1="48" x2="172.3" y2="368" class="grid"/>
<text x="172.3" y="384" font-size="11" text-anchor="middle" class="mut">强流出</text>
<line x1="283.6" y1="48" x2="283.6" y2="368" class="grid"/>
<text x="283.6" y="384" font-size="11" text-anchor="middle" class="mut">流出</text>
<line x1="395.0" y1="48" x2="395.0" y2="368" class="axis"/>
<text x="395.0" y="384" font-size="11" text-anchor="middle" class="mut">0</text>
<line x1="506.4" y1="48" x2="506.4" y2="368" class="grid"/>
<text x="506.4" y="384" font-size="11" text-anchor="middle" class="mut">流入</text>
<line x1="617.7" y1="48" x2="617.7" y2="368" class="grid"/>
<text x="617.7" y="384" font-size="11" text-anchor="middle" class="mut">强流入</text>
<text x="138" y="82.0" font-size="13" text-anchor="end">国家队</text>
<circle cx="395.0" cy="78.0" r="5" class="neutral" stroke="#898781" stroke-width="1"/>
<text x="736" y="82.0" font-size="11" text-anchor="end" class="sec">置信度 低</text>
<text x="138" y="126.0" font-size="13" text-anchor="end">险资与社保</text>
<circle cx="395.0" cy="122.0" r="5" class="neutral" stroke="#898781" stroke-width="1"/>
<text x="736" y="126.0" font-size="11" text-anchor="end" class="sec">置信度 低</text>
<text x="138" y="170.0" font-size="13" text-anchor="end">公募基金(附:主观私募)</text>
<path d="M395.0,156.0 h107.4 a4,4 0 0 1 4,4 v12 a4,4 0 0 1 -4,4 h-107.4 z" class="inflow" opacity="0.55"/>
<text x="736" y="170.0" font-size="11" text-anchor="end" class="sec">置信度 中</text>
<text x="138" y="214.0" font-size="13" text-anchor="end">量化资金</text>
<circle cx="395.0" cy="210.0" r="5" class="neutral" stroke="#898781" stroke-width="1"/>
<text x="736" y="214.0" font-size="11" text-anchor="end" class="sec">置信度 低</text>
<text x="138" y="258.0" font-size="13" text-anchor="end">游资</text>
<circle cx="395.0" cy="254.0" r="5" class="neutral" stroke="#898781" stroke-width="1"/>
<text x="736" y="258.0" font-size="11" text-anchor="end" class="sec">置信度 高</text>
<text x="138" y="302.0" font-size="13" text-anchor="end">产业资本</text>
<path d="M395.0,288.0 h107.4 a4,4 0 0 1 4,4 v12 a4,4 0 0 1 -4,4 h-107.4 z" class="inflow" opacity="0.55"/>
<text x="736" y="302.0" font-size="11" text-anchor="end" class="sec">置信度 高</text>
<text x="138" y="346.0" font-size="13" text-anchor="end">普通散户</text>
<path d="M395.0,332.0 h-107.4 a4,4 0 0 0 -4,4 v12 a4,4 0 0 0 4,4 h107.4 z" class="outflow" opacity="0.55"/>
<text x="736" y="346.0" font-size="11" text-anchor="end" class="sec">置信度 高</text></svg>
